<svg preserveAspectRatio="none" overflow="visible" style="display: block;" width="20" height="20" viewBox="0 0 20 20" fill="none" xmlns="http://www.w3.org/2000/svg">
<g id="twotone-list/book-edit">
<path id="opacity" opacity="0.4" d="M9.91667 5.41667C9.91667 5.00245 9.58088 4.66667 9.16667 4.66667C8.75245 4.66667 8.41667 5.00245 8.41667 5.41667L9.16667 5.41667L9.91667 5.41667ZM8.41667 16.25C8.41667 16.6642 8.75246 17 9.16667 17C9.58088 17 9.91667 16.6642 9.91667 16.25H9.16667H8.41667ZM12.7898 16.9631L12.6329 16.2297V16.2297L12.7898 16.9631ZM11.7869 15.9602L12.5203 16.1171L11.7869 15.9602ZM12.5172 13.8431L13.0476 14.3734V14.3734L12.5172 13.8431ZM14.9069 16.2328L15.4372 16.7631H15.4372L14.9069 16.2328ZM18.1635 11.6477L18.8131 11.2727V11.2727L18.1635 11.6477ZM17.6634 13.4762L17.1331 12.9459V12.9459L17.6634 13.4762ZM18.1635 12.9151L18.8131 13.2901V13.2901L18.1635 12.9151ZM17.1023 10.5865L17.4773 9.93694V9.93694L17.1023 10.5865ZM15.2738 11.0866L14.7434 10.5562V10.5562L15.2738 11.0866ZM15.8349 10.5865L15.4599 9.93694V9.93694L15.8349 10.5865ZM9.16667 5.41667L8.41667 5.41667L8.41667 16.25H9.16667H9.91667L9.91667 5.41667L9.16667 5.41667ZM17.6634 13.4762L17.1331 12.9459L14.3766 15.7024L14.9069 16.2328L15.4372 16.7631L18.1938 14.0066L17.6634 13.4762ZM12.5172 13.8431L13.0476 14.3734L15.8041 11.6169L15.2738 11.0866L14.7434 10.5562L11.9869 13.3128L12.5172 13.8431ZM12.7898 16.9631L12.6329 16.2297C12.4862 16.261 12.3712 16.2856 12.2728 16.3039C12.1733 16.3224 12.1127 16.3302 12.075 16.3326C12.036 16.3351 12.0536 16.3293 12.1 16.3412C12.1588 16.3564 12.2325 16.392 12.2952 16.4548L11.7649 16.9851L11.2346 17.5154C11.5421 17.823 11.9241 17.8452 12.1702 17.8296C12.4029 17.8148 12.6834 17.7528 12.9466 17.6965L12.7898 16.9631ZM11.7869 15.9602L11.0535 15.8034C10.9972 16.0666 10.9352 16.3471 10.9204 16.5798C10.9048 16.8259 10.927 17.2079 11.2346 17.5154L11.7649 16.9851L12.2952 16.4548C12.358 16.5175 12.3936 16.5912 12.4088 16.65C12.4207 16.6964 12.4149 16.714 12.4174 16.675C12.4198 16.6373 12.4276 16.5767 12.4461 16.4772C12.4644 16.3788 12.489 16.2638 12.5203 16.1171L11.7869 15.9602ZM17.6634 11.0866L17.1331 11.6169C17.445 11.9288 17.4924 11.9853 17.514 12.0227L18.1635 11.6477L18.8131 11.2727C18.6678 11.0212 18.4374 10.7999 18.1938 10.5562L17.6634 11.0866ZM17.6634 13.4762L18.1938 14.0066C18.4374 13.7629 18.6678 13.5416 18.8131 13.2901L18.1635 12.9151L17.514 12.5401C17.4924 12.5775 17.445 12.634 17.1331 12.9459L17.6634 13.4762ZM18.1635 11.6477L17.514 12.0227C17.6064 12.1828 17.6064 12.38 17.514 12.5401L18.1635 12.9151L18.8131 13.2901C19.1734 12.6659 19.1734 11.8969 18.8131 11.2727L18.1635 11.6477ZM17.6634 11.0866L18.1938 10.5562C17.9501 10.3126 17.7288 10.0822 17.4773 9.93694L17.1023 10.5865L16.7273 11.236C16.7647 11.2576 16.8212 11.305 17.1331 11.6169L17.6634 11.0866ZM15.2738 11.0866L15.8041 11.6169C16.116 11.305 16.1725 11.2576 16.2099 11.236L15.8349 10.5865L15.4599 9.93694C15.2084 10.0822 14.9871 10.3126 14.7434 10.5562L15.2738 11.0866ZM17.1023 10.5865L17.4773 9.93694C16.8531 9.57658 16.0841 9.57658 15.4599 9.93694L15.8349 10.5865L16.2099 11.236C16.37 11.1436 16.5672 11.1436 16.7273 11.236L17.1023 10.5865ZM14.9069 16.2328L14.3766 15.7024C14.2361 15.8429 14.038 15.9407 13.732 16.0188C13.5787 16.058 13.4138 16.0885 13.2256 16.1211C13.0463 16.152 12.8355 16.1864 12.6329 16.2297L12.7898 16.9631L12.9466 17.6965C13.1116 17.6612 13.2804 17.6338 13.481 17.5992C13.6727 17.566 13.8879 17.5271 14.1031 17.4722C14.5342 17.3621 15.027 17.1733 15.4372 16.7631L14.9069 16.2328ZM11.7869 15.9602L12.5203 16.1171C12.5636 15.9145 12.598 15.7037 12.629 15.5244C12.6615 15.3362 12.692 15.1713 12.7312 15.018C12.8093 14.712 12.9071 14.5139 13.0476 14.3734L12.5172 13.8431L11.9869 13.3128C11.5767 13.723 11.3879 14.2158 11.2778 14.6469C11.2229 14.8621 11.184 15.0773 11.1508 15.269C11.1162 15.4696 11.0888 15.6384 11.0535 15.8034L11.7869 15.9602Z" fill="#22CFAB"/>
<path id="Vector" d="M9.16667 16.25C8.98142 16.25 8.60295 16.0483 7.84605 15.6449C7.07675 15.2348 6.01391 14.8268 4.65209 14.5707C3.1244 14.2834 2.36056 14.1398 2.01361 13.7157C1.66667 13.2916 1.66667 12.6123 1.66667 11.2537V5.91379C1.66667 4.42794 1.66667 3.68502 2.20725 3.22751C2.74784 2.77001 3.38259 2.88937 4.65209 3.1281C7.15798 3.59933 8.6515 4.58505 9.16667 5.15095C9.68183 4.58505 11.1754 3.59933 13.6812 3.1281C14.9507 2.88937 15.5855 2.77001 16.1261 3.22751C16.6667 3.68502 16.6667 4.42794 16.6667 5.91379V8.33333" stroke="#22CFAB" stroke-width="1.5" stroke-linecap="round" stroke-linejoin="round"/>
</g>
</svg>
